<?xml version="1.0" encoding="UTF-8"?> <svg xmlns="http://www.w3.org/2000/svg" width="261" height="57" viewBox="0 0 261 57" fill="none"> <path d="M72.2986 21.5807L72.0255 21.6789C71.3386 19.1487 69.376 16.8917 66.7946 16.8917H65.3738V32.0895C65.3738 33.1477 65.9626 33.4421 66.7946 33.4421H67.6053V33.7621H60.6592V33.4421H61.4912C62.3445 33.4421 62.9162 33.1477 62.9162 32.0895V16.8917H61.4698C58.88 16.8917 56.8746 19.1487 56.1621 21.6789L55.8933 21.5807C56.4097 19.6944 56.6412 17.7414 56.5802 15.7866H56.8746L56.9514 16.0554C57.1221 16.5461 57.2672 16.5717 57.7834 16.5717H70.481C71.0186 16.5717 71.1423 16.5461 71.3343 16.0554L71.4325 15.7866H71.6799C71.6437 17.736 71.8501 19.6823 72.2943 21.5807" fill="#323232"></path> <path d="M96.7552 33.4422H97.6085V33.7622H90.6411V33.4422H91.4518C92.3051 33.4422 92.8768 33.1477 92.8768 32.0896V25.1392H83.2V32.0896C83.2 33.1477 83.7888 33.4422 84.6251 33.4422H85.4784V33.7622H78.5067V33.4422H79.36C80.2134 33.4422 80.7851 33.1477 80.7851 32.0896V18.24C80.7851 17.1862 80.192 16.8918 79.36 16.8918H78.5067V16.5718H85.4614V16.8918H84.608C83.7547 16.8918 83.183 17.1862 83.183 18.24V24.7979H92.8768V18.24C92.8768 17.1862 92.288 16.8918 91.4518 16.8918H90.6411V16.5718H97.5915V16.8918H96.7381C95.8848 16.8918 95.3131 17.1862 95.3131 18.24V32.0896C95.3131 33.1477 95.9019 33.4422 96.7381 33.4422" fill="#323232"></path> <path d="M117.901 33.7622H104.273V33.4422H105.126C105.979 33.4422 106.551 33.1477 106.551 32.1152V18.2144C106.551 17.1862 105.962 16.8918 105.126 16.8918H104.273V16.5718H117.606C117.599 18.189 117.813 19.7997 118.242 21.359L117.947 21.4571C117.214 18.7819 115.443 16.8918 112.793 16.8918H108.987V24.8448H111.974C113.681 24.8448 114.871 23.6928 114.871 22.319V21.999H115.166V28.015H114.871V27.695C114.871 26.3211 113.668 25.1648 111.974 25.1648H108.987V33.4422H112.473C115.417 33.4422 117.849 31.0827 118.587 28.3819L118.856 28.48C118.349 30.2013 118.029 31.9722 117.901 33.7622" fill="#323232"></path> <path d="M137.301 25.0195C137.301 19.6905 140.983 16.2046 146.163 16.2046C150.242 16.2046 152.845 18.4616 153.655 20.5736C152.549 21.2025 151.723 22.2293 151.347 23.4451L151.078 23.347C151.212 22.4817 151.164 21.5981 150.937 20.7525C150.71 19.907 150.309 19.118 149.76 18.436C149.312 17.8344 148.724 17.3505 148.048 17.0257C147.372 16.701 146.627 16.5451 145.877 16.5715C142.293 16.5715 139.959 19.3192 139.959 23.6926C139.959 28.7016 142.639 33.7619 147.157 33.7619C148.08 33.7731 148.976 33.4515 149.681 32.856C150.387 32.2606 150.854 31.431 150.997 30.5192V27.0803C150.997 26.1459 150.31 25.9496 149.474 25.9496H147.217V25.6339H154.368V25.9496H154.146C153.583 25.9496 153.485 26.1715 153.485 26.739V30.5448C152.943 31.6499 150.878 34.1288 146.436 34.1288C141.035 34.1288 137.301 30.3699 137.301 25.0195" fill="#323232"></path> <path d="M178.014 32.9984C177.352 33.7835 176.222 34.1291 175.117 34.1291C173.495 34.1291 172.194 33.4422 171.682 31.2064L170.829 27.9168C170.312 25.8048 169.305 25.4123 167.56 25.4123H165.645V32.0896C165.645 33.1477 166.238 33.4422 167.07 33.4422H167.923V33.7622H160.947V33.4422H161.8C162.654 33.4422 163.225 33.1477 163.225 32.0896V18.24C163.225 17.1862 162.637 16.8918 161.8 16.8918H160.947V16.5718H168.708C172.663 16.5718 175.142 18.2784 175.142 20.9408C175.142 23.3984 173.056 24.8448 169.911 25.2886C171.78 25.4336 173.226 26.1974 173.692 28.2368L174.332 30.7413C174.724 32.448 175.509 33.5147 176.495 33.5147C176.759 33.5012 177.017 33.4332 177.254 33.3149C177.49 33.1967 177.699 33.0308 177.869 32.8278L178.014 32.9984ZM165.64 16.8918V25.0923H168.32C170.602 25.0923 172.394 23.8123 172.394 21.359C172.394 18.9056 170.577 16.8918 167.633 16.8918H165.64Z" fill="#323232"></path> <path d="M185.31 31.5732C184.883 32.627 184.943 33.4633 186.048 33.4633H187.272V33.7833H182.093V33.4633H182.946C183.974 33.4633 184.443 32.6782 184.909 31.5732L191.441 15.9785H191.663L198.826 32.3582C199.253 33.2926 199.833 33.442 200.67 33.442H201.233V33.7619H193.881V33.442H195.255C196.066 33.442 196.458 33.2201 196.109 32.3838L190.438 19.1572L185.31 31.5732Z" fill="#323232"></path> <path d="M219.87 21.7046C219.87 24.8448 217.216 26.5643 212.868 26.5643H210.308V32.0896C210.308 33.1477 210.897 33.4422 211.733 33.4422H212.586V33.7622H205.602V33.4422H206.434C207.287 33.4422 207.859 33.1477 207.859 32.0896V18.24C207.859 17.1862 207.27 16.8918 206.434 16.8918H205.602V16.5718H212.966C216.921 16.5718 219.87 18.4363 219.87 21.6918V21.7046ZM217.169 21.935C217.169 19.2598 215.424 16.879 212.108 16.879H210.316V26.2102H212.697C215.129 26.2102 217.169 24.8107 217.169 21.9435" fill="#323232"></path> <path d="M239.223 33.7622H225.591V33.4422H226.445C227.298 33.4422 227.87 33.1477 227.87 32.1152V18.2144C227.87 17.1862 227.281 16.8918 226.445 16.8918H225.591V16.5718H238.933C238.926 18.189 239.14 19.7997 239.569 21.359L239.274 21.4571C238.541 18.7819 236.77 16.8918 234.116 16.8918H230.31V24.8448H233.297C235.004 24.8448 236.194 23.6928 236.194 22.319V21.999H236.488V28.015H236.194V27.695C236.194 26.3211 234.991 25.1648 233.297 25.1648H230.31V33.4422H233.813C236.757 33.4422 239.189 31.0827 239.927 28.3819L240.196 28.48C239.689 30.2013 239.368 31.9722 239.24 33.7622" fill="#323232"></path> <path d="M246.737 29.9776C247.839 29.2733 248.677 28.2228 249.118 26.991L249.391 27.0891C249.092 31.0912 250.888 33.8176 254.203 33.8176C256.435 33.8176 258.009 32.3712 258.009 30.3574C258.009 27.5798 255.552 26.5472 253.218 25.6427C250.026 24.3627 248.038 23.1339 248.038 20.6294C248.038 18.0267 250.445 16.2134 253.734 16.2134C257.519 16.2134 259.311 18.176 259.998 19.8187C259.462 20.1008 258.992 20.4912 258.616 20.9649C258.24 21.4387 257.966 21.9856 257.813 22.5707L257.519 22.447C257.813 19.5755 256.806 16.5291 253.679 16.5291C251.716 16.5291 250.291 17.7835 250.291 19.6011C250.291 22.3488 253.384 23.2107 255.569 24.1664C258.321 25.3696 260.262 26.8459 260.262 29.3718C260.262 32.1493 257.758 34.1376 254.246 34.1376C250.244 34.1376 247.202 31.8038 246.758 29.9862" fill="#323232"></path> <path d="M188.906 27.5075C189.571 27.4561 190.239 27.5433 190.869 27.7635C191.637 28.0237 192.925 29.1373 194.188 28.5571L194.248 28.6381C192.302 29.5341 191.031 29.2312 190.259 28.9709C189.486 28.7107 188.262 27.5843 187.029 28.1176L186.965 28.0237C187.58 27.7499 188.236 27.5798 188.906 27.5203" fill="#D31F3A"></path> <path d="M37.9713 26.3493C37.9739 26.328 37.9739 26.3065 37.9713 26.2852L37.9626 26.2505C37.9626 26.1638 37.9626 26.0772 37.9626 25.9922C37.9504 16.8722 36.4963 2.15648 36.4806 2.00914C36.4747 1.94714 36.4462 1.88938 36.4006 1.84664C36.3549 1.8039 36.2952 1.7791 36.2324 1.77685C35.7134 1.68324 26.2778 0 18.9586 0C11.4786 0 1.76513 1.76124 1.66726 1.77858H1.65678H1.64105H1.62357L1.60609 1.78725L1.58862 1.79765L1.57114 1.81152C1.56459 1.81515 1.55868 1.81984 1.55367 1.82538V1.82538L1.52221 1.86179L1.51172 1.87739C1.51172 1.87739 1.51172 1.88606 1.51172 1.89126C1.51172 1.89646 1.51172 1.89126 1.51172 1.89993V1.91379C1.51266 1.91661 1.51266 1.91965 1.51172 1.92246C1.51254 1.92763 1.51254 1.93289 1.51172 1.93806V1.93806C1.51086 1.94381 1.51086 1.94965 1.51172 1.9554C1.49599 2.10101 0 16.5793 0 25.9402C0 26.2107 -1.38674e-06 26.4793 0.0122322 26.7498V30.0105C0.0160651 34.4921 1.18116 38.8975 3.3957 42.8038C5.62689 46.7275 8.82681 50.0244 12.695 52.3849L18.8817 56.1622C18.9227 56.1872 18.9699 56.2004 19.018 56.2004C19.0661 56.2004 19.1133 56.1872 19.1543 56.1622L25.2851 52.4352C29.1533 50.0747 32.3532 46.7778 34.5844 42.8541C36.7991 38.9472 37.9642 34.5412 37.9678 30.059L37.9504 27.3374C37.9626 27.0081 37.9678 26.677 37.9678 26.3476L37.9713 26.3493ZM1.94514 2.33504C3.58794 2.6228 12.1812 4.06854 18.9586 4.06854C25.736 4.06854 34.3782 2.6176 35.986 2.33504C36.1852 4.39965 37.4261 17.5899 37.4365 25.9922C37.4365 26.0529 37.4365 26.1136 37.4365 26.1656C37.434 26.1898 37.434 26.2142 37.4365 26.2384V26.6562C37.2892 33.1301 34.7153 39.3173 30.217 44.0103C28.6669 45.627 26.917 47.043 25.009 48.2245L18.9568 51.9706L17.9781 51.3725L12.9012 48.2314C10.9984 47.0555 9.24912 45.6512 7.69318 44.0502C4.62306 40.8884 2.42767 36.9942 1.31948 32.7442C0.874408 31.0308 0.602183 29.2777 0.506819 27.5108C0.489343 27.1242 0.478856 26.7359 0.478856 26.3476V26.3389V26.2349C0.478832 26.2148 0.475285 26.1949 0.468371 26.176V25.9922C0.468371 17.3732 1.74066 4.38924 1.94864 2.33677" fill="#323232"></path> <path d="M14.3334 33.9126V33.8159C14.0605 33.808 13.7902 33.76 13.5313 33.6734C13.2663 33.5975 13.0177 33.4734 12.7979 33.3075C12.582 33.1494 12.405 32.9443 12.2803 32.7078C12.1557 32.4712 12.0867 32.2095 12.0786 31.9424C12.078 31.7048 12.1088 31.4682 12.1703 31.2387V31.2387C12.2602 30.8869 12.4982 30.1973 12.4982 30.1973L17.2459 17.8165C17.3617 17.5143 17.4983 17.2204 17.6549 16.937C17.7015 16.8546 17.7707 16.7873 17.8545 16.743C17.9382 16.6987 18.0329 16.6794 18.1274 16.6872C18.3901 16.7224 18.5593 17.039 18.8079 17.6529L23.5679 30.7989C23.7695 31.241 23.8752 31.7206 23.8782 32.2062C23.8716 32.3892 23.8272 32.5689 23.7477 32.734C23.6421 32.9698 23.4761 33.1736 23.2665 33.3251C23.0478 33.4799 22.811 33.6076 22.5613 33.705C22.4025 33.766 22.2366 33.8068 22.0676 33.8264V33.9232H29.8723V33.8264C29.6321 33.8225 29.3954 33.7679 29.1777 33.6663C28.808 33.5103 28.4694 33.2892 28.1781 33.0137C28.0099 32.86 27.8565 32.691 27.7197 32.5088V32.5088C27.5093 32.2182 27.3368 31.9019 27.2067 31.5677C26.1842 28.9835 19.7528 12.6887 19.3315 11.6455H19.2874L12.172 29.856C12.172 29.856 11.9323 30.4911 11.7877 30.7972C11.6431 31.1033 11.4898 31.4094 11.3188 31.7049C11.1249 32.03 10.9025 32.3373 10.6541 32.6232C10.4576 32.8603 10.2319 33.0719 9.98242 33.2529C9.84339 33.3546 9.69728 33.4463 9.5452 33.5274C9.25428 33.6833 8.93573 33.7813 8.6073 33.8159V33.9144H14.3352" fill="#323232"></path> <path d="M18.4735 26.2153C17.8639 25.8951 17.2162 25.7681 16.5718 25.8424C15.9195 25.9292 15.2813 26.1756 14.6829 26.5717L14.7447 26.7086C15.9459 25.9533 17.1692 27.596 17.8887 27.9618C18.6398 28.3441 19.8775 28.7807 21.7712 27.4898L21.711 27.3717C20.4844 28.2143 19.2293 26.6 18.4798 26.2247" fill="#ED1C2A"></path> </svg> 