<svg width="19" height="28" viewBox="0 0 19 28" fill="none" xmlns="http://www.w3.org/2000/svg">
<path d="M18.6526 12.9435C18.6538 12.9331 18.6538 12.9225 18.6526 12.912L18.6483 12.895C18.6483 12.8524 18.6483 12.8099 18.6483 12.7681C18.6423 8.2881 17.928 1.05932 17.9203 0.986946C17.9174 0.95649 17.9034 0.928117 17.881 0.907122C17.8585 0.886126 17.8292 0.873944 17.7984 0.872839C17.5434 0.826855 12.9084 0 9.313 0C5.63861 0 0.867081 0.865171 0.819005 0.873689H0.813857H0.80613H0.797543L0.788957 0.877948L0.780375 0.883056L0.771788 0.88987C0.768571 0.891653 0.765667 0.893957 0.763206 0.896678L0.747752 0.914564L0.742599 0.922227C0.742599 0.922227 0.742599 0.926486 0.742599 0.92904C0.742599 0.931594 0.742599 0.92904 0.742599 0.933299V0.940107C0.743061 0.941493 0.743061 0.942986 0.742599 0.944366C0.743002 0.946906 0.743002 0.94949 0.742599 0.95203C0.742177 0.954854 0.742177 0.957723 0.742599 0.960548C0.734872 1.03208 0 8.14422 0 12.7426C0 12.8754 -6.81205e-07 13.0074 0.0060088 13.1403V14.742C0.00789163 16.9435 0.580219 19.1075 1.66806 21.0264C2.76409 22.9539 4.33598 24.5734 6.23614 25.7329L9.27522 27.5885C9.29536 27.6007 9.31855 27.6072 9.34218 27.6072C9.3658 27.6072 9.38899 27.6007 9.40913 27.5885L12.4208 25.7576C14.3209 24.5981 15.8928 22.9786 16.9888 21.0511C18.0768 19.132 18.6491 16.9676 18.6509 14.7658L18.6423 13.4289C18.6483 13.2671 18.6509 13.1045 18.6509 12.9427L18.6526 12.9435ZM0.955507 1.14704C1.7625 1.28839 5.98375 1.99858 9.313 1.99858C12.6422 1.99858 16.8875 1.28584 17.6773 1.14704C17.7752 2.16123 18.3848 8.64065 18.3899 12.7681C18.3899 12.7979 18.3899 12.8277 18.3899 12.8533C18.3886 12.8652 18.3886 12.8772 18.3899 12.889V13.0943C18.3175 16.2744 17.0531 19.3138 14.8434 21.6191C14.082 22.4133 13.2224 23.1088 12.2851 23.6892L9.31211 25.5294L8.83135 25.2356L6.33743 23.6926C5.40272 23.115 4.54343 22.4252 3.77911 21.6387C2.27098 20.0855 1.19254 18.1726 0.648166 16.0849C0.429534 15.2432 0.295809 14.382 0.248964 13.5141C0.240379 13.3242 0.235228 13.1334 0.235228 12.9427V12.9384V12.8873C0.235216 12.8774 0.233473 12.8677 0.230077 12.8584V12.7681C0.230077 8.5342 0.855061 2.15612 0.957227 1.14789" fill="#323232"/>
<path d="M7.04097 16.6588V16.6113C6.90691 16.6074 6.77414 16.5838 6.64696 16.5413C6.51678 16.504 6.39466 16.4431 6.28669 16.3616C6.18063 16.2839 6.09369 16.1832 6.03243 16.067C5.97122 15.9508 5.93733 15.8222 5.93335 15.691C5.93305 15.5743 5.94818 15.458 5.97839 15.3453C6.02256 15.1725 6.13947 14.8337 6.13947 14.8337L8.47167 8.75195C8.52856 8.6035 8.59566 8.45913 8.67258 8.31991C8.69548 8.27944 8.72947 8.24638 8.77063 8.22462C8.81175 8.20285 8.85827 8.19337 8.90469 8.19721C9.03374 8.2145 9.11685 8.37002 9.23897 8.67159L11.5772 15.1293C11.6762 15.3464 11.7282 15.582 11.7296 15.8206C11.7264 15.9105 11.7046 15.9987 11.6655 16.0798C11.6137 16.1957 11.5321 16.2958 11.4292 16.3702C11.3217 16.4463 11.2054 16.509 11.0827 16.5568C11.0047 16.5868 10.9232 16.6068 10.8402 16.6165V16.664H14.6741V16.6165C14.5561 16.6145 14.4398 16.5877 14.3329 16.5378C14.1513 16.4612 13.985 16.3526 13.8419 16.2172C13.7593 16.1417 13.6839 16.0587 13.6167 15.9692C13.5133 15.8265 13.4286 15.6711 13.3647 15.5069C12.8624 14.2375 9.70313 6.23303 9.49618 5.72058H9.47451L5.97923 14.6661C5.97923 14.6661 5.86148 14.9781 5.79045 15.1284C5.71942 15.2788 5.64411 15.4292 5.56011 15.5743C5.46487 15.734 5.35562 15.885 5.2336 16.0254C5.13707 16.1419 5.0262 16.2458 4.90365 16.3347C4.83535 16.3847 4.76358 16.4297 4.68887 16.4696C4.54596 16.5462 4.38948 16.5943 4.22815 16.6113V16.6597H7.04185" fill="#323232"/>
<path d="M9.0747 12.8777C8.77524 12.7204 8.45707 12.658 8.14053 12.6945C7.8201 12.7372 7.5066 12.8582 7.21265 13.0528L7.243 13.12C7.83307 12.749 8.43399 13.5559 8.78743 13.7356C9.15639 13.9234 9.76438 14.1379 10.6946 13.5038L10.665 13.4458C10.0625 13.8597 9.44597 13.0667 9.07779 12.8823" fill="#ED1C2A"/>
</svg>
