<svg width="16" height="16" viewBox="0 0 16 16" fill="none" xmlns="http://www.w3.org/2000/svg">
<path d="M14.1087 6.38828L3.31716 0.246391C2.17244 -0.407126 1.00537 0.307592 1.00537 1.59281V14.4146C1.00537 15.5035 1.71424 16 2.37307 16C2.68334 16 2.99945 15.9021 3.31344 15.711L14.1534 9.0758C14.6984 8.74105 15.0044 8.24559 14.9948 7.71607C14.9857 7.18602 14.6632 6.70174 14.1087 6.38828ZM13.427 7.89063L2.58754 14.5243C2.51463 14.569 2.45716 14.5913 2.41778 14.6025C2.40713 14.5631 2.39649 14.5024 2.39649 14.4146V1.59334C2.39649 1.46136 2.42044 1.39484 2.42044 1.37834C2.46301 1.381 2.53752 1.40282 2.63118 1.45604L13.4211 7.59793C13.5542 7.67403 13.5936 7.74002 13.6063 7.72565C13.5994 7.74375 13.5542 7.81133 13.427 7.89063Z" fill="#121212"/>
</svg>
